<svg id="Capa_1" xmlns="http://www.w3.org/2000/svg" viewBox="0 0 451.5 451.5"><style>.st0{fill:#3e4f5f}</style><path class="st0" d="M152.8 149c2.2 0 4.4.2 6.6.7-.5-13 7.1-25.5 19.8-30.6 3.7-1.5 7.7-2.2 11.7-2.2 9 0 17.3 3.8 23.1 10.1l23.3-24.2c6.8-7.1 6.6-18.3-.5-25.1-3.4-3.3-7.9-5-12.3-5-4.7 0-9.3 1.8-12.8 5.5l-70.3 73c3.7-1.4 7.5-2.2 11.4-2.2zm-39.9 164.1c4-6.6 9.9-11.6 17.1-14.4 4.2-1.7 8.7-2.6 13.2-2.6 6.5 0 12.9 1.8 18.5 5.2l7.2 4.4-.5-1.2L163 291l-39.5-98.8c-2.9-7.2-2.9-15-.3-22.2l-6 6.3L79 216l7.9-62.6c.9-7.2-1.7-14.1-6.7-18.8-3.3-3.2-7.6-5.4-12.6-6-1-.1-1.9-.2-2.8-.2-11 0-20.6 8.2-22 19.4L4.4 333.9c-1.8 8.5 1 17.4 7.3 23.4l65.5 63.1c4.9 4.7 11.2 7.1 17.6 7.1 4.5 0 9-1.2 13.1-3.6l55.6-33.5-39.6-28.7c-16.2-10.5-21.1-32.1-11-48.6zM270 133.8l3.4 8.4L288 127c6.8-7.1 6.6-18.3-.5-25.1-3.4-3.3-7.9-5-12.3-5-4.7 0-9.3 1.8-12.8 5.5l-12.5 13c9 2.6 16.5 9.3 20.1 18.4z"/><path class="st0" d="M367.6 293l-50.7-127c-2.5-6.2-8.4-9.9-14.6-9.9-2 0-3.9.4-5.9 1.1-8.1 3.2-12 12.4-8.8 20.5l24.4 61c.8 1.9.7 4.1-.1 6-.8 1.9-2.4 3.4-4.3 4.2-1 .4-1.9.6-2.9.6-3.1 0-6.1-1.9-7.3-5l-41.9-105c-2.5-6.2-8.4-9.9-14.6-9.9-2 0-3.9.4-5.9 1.1-8.1 3.2-12 12.4-8.8 20.5l41.9 105c.8 1.9.7 4.1-.1 6-.8 1.9-2.4 3.4-4.3 4.2-1 .4-1.9.6-2.9.6-3.1 0-6.1-1.9-7.3-5l-47.8-119.6c-2.5-6.2-8.4-9.9-14.7-9.9-1.9 0-3.9.4-5.8 1.1-8.1 3.2-12 12.4-8.8 20.5l47.8 119.6c.8 2 .7 4.1-.1 6-.8 1.9-2.4 3.4-4.3 4.2-1 .4-1.9.6-2.9.6-3.1 0-6.1-1.9-7.3-5l-41.9-105c-2.5-6.2-8.4-9.9-14.6-9.9-1.9 0-3.9.4-5.9 1.1-8.1 3.2-12 12.4-8.8 20.5L183 298.7l15 37.5c.4 1.1.1 2.4-.8 3.2-.5.4-1.2.7-1.8.7-.5 0-1-.1-1.5-.4l-40.5-24.9c-3.2-2-6.8-2.9-10.3-2.9-2.5 0-5 .5-7.4 1.4-3.8 1.5-7.2 4.2-9.5 8-5.7 9.3-2.8 21.4 6.5 27.1L268 446.6c4.4 3.2 9.6 4.8 14.9 4.8 3.2 0 6.4-.6 9.4-1.8l71.5-28.5c10.7-4.3 17.1-15.1 15.8-26.6l-12-101.5zm-2.8-198.6c-5.8-2.9-12.9-.5-15.9 5.3-2.9 5.9-.5 13 5.3 15.9 13 6.5 22.8 17.7 27.4 31.5 4.6 13.8 3.6 28.6-2.9 41.6-2.9 5.9-.5 13 5.3 15.9 1.7.8 3.5 1.2 5.3 1.2 4.3 0 8.5-2.4 10.6-6.6 9.3-18.7 10.8-39.9 4.1-59.7-6.6-19.7-20.5-35.8-39.2-45.1z"/><path class="st0" d="M382.4 59.1c-5.8-2.9-12.9-.5-15.9 5.3-2.9 5.8-.5 12.9 5.3 15.9 46.4 23.1 65.3 79.6 42.2 126-2.9 5.8-.5 12.9 5.3 15.9 1.7.8 3.5 1.2 5.3 1.2 4.3 0 8.5-2.4 10.6-6.6 29-58 5.2-128.8-52.8-157.7zm-188.1-4.9c1.1-6.4-3.2-12.5-9.7-13.6-20.6-3.5-41.3 1.3-58.3 13.4S98 84.1 94.5 104.7c-1.1 6.4 3.2 12.5 9.7 13.6.7.1 1.3.2 2 .2 5.7 0 10.7-4.1 11.6-9.9 2.4-14.4 10.3-26.9 22.2-35.3 11.9-8.4 26.3-11.8 40.6-9.3 6.6.9 12.7-3.3 13.7-9.8z"/><path class="st0" d="M65.3 111.7c.7.1 1.3.2 2 .2 5.7 0 10.7-4.1 11.7-9.9 8.6-51.1 57.2-85.7 108.3-77 6.4 1 12.5-3.3 13.6-9.7 1.1-6.4-3.3-12.5-9.7-13.6-31-5.2-62.2 1.9-87.8 20.1C77.9 40 60.9 67.1 55.6 98.1c-1 6.4 3.3 12.5 9.7 13.6z"/></svg>